<?xml version="1.0"?>
<svg xmlns="http://www.w3.org/2000/svg" height="512px" viewBox="0 0 512 512.001" width="512px"><g transform="matrix(0.668972 0 0 0.668972 84.7432 84.7433)"><path d="m505.425781 344.152344-76.945312-76.957032c18.589843-24.496093 30.195312-53.859374 33.171875-84.644531 3.644531-37.78125-5.765625-75.953125-26.5-107.488281-2.277344-3.460938-6.929688-4.421875-10.386719-2.144531-3.460937 2.277343-4.421875 6.929687-2.144531 10.390625 39.238281 59.671875 31.007812 139.699218-19.570313 190.28125-59.074219 59.078125-155.1875 59.078125-214.257812 0-59.074219-59.078125-59.074219-155.207032 0-214.285156 59.070312-59.078126 155.1875-59.078126 214.238281-.019532l.410156.414063c2.921875 2.9375 7.667969 2.957031 10.605469.035156 2.941406-2.917969 2.957031-7.667969.039063-10.605469l-.429688-.433594c-64.921875-64.925781-170.550781-64.925781-235.472656 0-2.039063 2.039063-4.011719 4.117188-5.921875 6.234376h-164.761719c-4.140625 0-7.5 3.359374-7.5 7.5v33.171874c0 4.144532 3.359375 7.503907 7.5 7.503907 4.144531 0 7.5-3.359375 7.5-7.503907v-25.667968h145.230469c-5.730469 8.050781-10.660157 16.496094-14.789063 25.234375h-93.441406c-4.140625 0-7.5 3.355469-7.5 7.5s3.359375 7.5 7.5 7.5h87.234375c-2.152344 6.023437-3.945313 12.144531-5.382813 18.335937h-81.851562c-4.140625 0-7.5 3.355469-7.5 7.5 0 4.140625 3.359375 7.5 7.5 7.5h79.078125c-.839844 6.082032-1.34375 12.203125-1.511719 18.332032h-77.566406c-4.140625 0-7.5 3.359374-7.5 7.503906 0 4.140625 3.359375 7.5 7.5 7.5h77.828125c1.351563 21.789062 6.941406 43.359375 16.789063 63.347656h-12.613282c-4.144531 0-7.5 3.359375-7.5 7.503906v222.03125c0 4.144532 3.355469 7.503906 7.5 7.503906h60c4.144532 0 7.5-3.359374 7.5-7.503906v-166.097656c6.753906 4.652344 13.773438 8.753906 21 12.296875v153.800781c0 4.144532 3.359375 7.503906 7.5 7.503906h60c4.144532 0 7.5-3.359374 7.5-7.503906v-136.84375c5.847656-.058594 11.6875-.414062 17.503906-1.078125v115.855469c0 4.144531 3.355469 7.503906 7.5 7.503906 4.140626 0 7.5-3.359375 7.5-7.503906v-118.269531c23.707032-4.921875 46.539063-15.039063 66.65625-30.355469l76.929688 76.941406c4.253906 4.25 9.90625 6.59375 15.914062 6.59375 6.011719 0 11.664063-2.34375 15.914063-6.59375 8.769531-8.765625 8.773437-23.039062.003906-31.820312zm-318.921875 118.070312h-45v-207.03125h13.511719c6.488281 10.300782 14.207031 20.042969 23.167969 29.007813 2.703125 2.703125 5.484375 5.285156 8.320312 7.761719zm51.003906 0v-139.847656c14.546876 5.425781 29.703126 8.746094 45 9.972656v129.875zm257.3125-96.859375c-1.417968 1.417969-3.304687 2.199219-5.308593 2.199219-2.003907 0-3.890625-.78125-5.304688-2.199219l-75.980469-75.984375c1.839844-1.683594 3.652344-3.402344 5.429688-5.179687 1.773438-1.773438 3.5-3.582031 5.183594-5.429688l75.972656 75.988281c2.925781 2.925782 2.929688 7.6875.007812 10.605469zm0 0" data-original="#000000" class="active-path" data-old_color="#F9F8F8" fill="#FFFFFF"/><path d="m322.507812 472.496094c-4.140624 0-7.5 3.355468-7.5 7.5v17.003906h-300.007812v-368.890625c0-4.144531-3.355469-7.5-7.5-7.5-4.140625 0-7.5 3.355469-7.5 7.5v376.390625c0 4.144531 3.359375 7.5 7.5 7.5h315.007812c4.144532 0 7.5-3.355469 7.5-7.5v-24.503906c0-4.144532-3.355468-7.5-7.5-7.5zm0 0" data-original="#000000" class="active-path" data-old_color="#F9F8F8" fill="#FFFFFF"/><path d="m32.5 307.695312v162.027344c0 4.140625 3.359375 7.5 7.5 7.5h60.003906c4.140625 0 7.5-3.359375 7.5-7.5v-162.027344c0-4.140624-3.359375-7.5-7.5-7.5h-60.003906c-4.140625 0-7.5 3.359376-7.5 7.5zm15 7.503907h45.003906v147.019531h-45.003906zm0 0" data-original="#000000" class="active-path" data-old_color="#F9F8F8" fill="#FFFFFF"/><path d="m108.082031 210.183594c4.144531 0 7.5-3.359375 7.5-7.503906 0-4.140626-3.355469-7.5-7.5-7.5h-56.082031c-4.140625 0-7.5 3.359374-7.5 7.5 0 4.144531 3.359375 7.503906 7.5 7.503906zm0 0" data-original="#000000" class="active-path" data-old_color="#F9F8F8" fill="#FFFFFF"/><path d="m295.921875 29.988281c-36.5 0-70.78125 14.179688-96.523437 39.925781-25.742188 25.746094-39.921876 60.03125-39.921876 96.535157 0 36.503906 14.179688 70.789062 39.921876 96.535156 25.746093 25.746094 60.023437 39.925781 96.523437 39.925781s70.777344-14.179687 96.523437-39.925781c25.742188-25.746094 39.917969-60.03125 39.917969-96.535156 0-36.503907-14.175781-70.789063-39.917969-96.535157-25.746093-25.746093-60.023437-39.925781-96.523437-39.925781zm85.914063 222.386719c-22.910157 22.914062-53.421876 35.53125-85.914063 35.53125-32.496094 0-63.003906-12.617188-85.914063-35.53125-22.914062-22.914062-35.53125-53.429688-35.53125-85.925781 0-32.5 12.617188-63.015625 35.53125-85.929688 23.683594-23.6875 54.800782-35.535156 85.914063-35.535156s62.230469 11.847656 85.914063 35.535156c22.910156 22.914063 35.527343 53.429688 35.527343 85.929688 0 32.496093-12.617187 63.011719-35.527343 85.925781zm0 0" data-original="#000000" class="active-path" data-old_color="#F9F8F8" fill="#FFFFFF"/></g> </svg>
